<mxfile host="app.diagrams.net" modified="2024-06-04T06:45:40.610Z" agent="Mozilla/5.0 (Windows NT 10.0; Win64; x64) AppleWebKit/537.36 (KHTML, like Gecko) Chrome/125.0.0.0 Safari/537.36" etag="id6EchjdtIoKxoOY1_tI" version="24.4.13" type="github">
  <diagram id="R2lEEEUBdFMjLlhIrx00" name="Page-1">
    <mxGraphModel dx="2610" dy="936" grid="1" gridSize="10" guides="1" tooltips="1" connect="1" arrows="1" fold="1" page="1" pageScale="1" pageWidth="850" pageHeight="1100" math="0" shadow="0" extFonts="Permanent Marker^https://fonts.googleapis.com/css?family=Permanent+Marker">
      <root>
        <mxCell id="0" />
        <mxCell id="1" parent="0" />
        <mxCell id="fvwBS4Mz04320T9NK9Mi-6" value="Product" style="rounded=0;whiteSpace=wrap;html=1;" vertex="1" parent="1">
          <mxGeometry x="-640" y="190" width="120" height="60" as="geometry" />
        </mxCell>
        <mxCell id="fvwBS4Mz04320T9NK9Mi-7" value="PID(PK)" style="ellipse;whiteSpace=wrap;html=1;" vertex="1" parent="1">
          <mxGeometry x="-590" y="30" width="120" height="70" as="geometry" />
        </mxCell>
        <mxCell id="fvwBS4Mz04320T9NK9Mi-8" value="Name" style="ellipse;whiteSpace=wrap;html=1;" vertex="1" parent="1">
          <mxGeometry x="-510" y="120" width="120" height="80" as="geometry" />
        </mxCell>
        <mxCell id="fvwBS4Mz04320T9NK9Mi-9" value="Description" style="ellipse;whiteSpace=wrap;html=1;" vertex="1" parent="1">
          <mxGeometry x="-470" y="240" width="120" height="80" as="geometry" />
        </mxCell>
        <mxCell id="fvwBS4Mz04320T9NK9Mi-10" value="Category" style="ellipse;whiteSpace=wrap;html=1;" vertex="1" parent="1">
          <mxGeometry x="-630" y="290" width="120" height="80" as="geometry" />
        </mxCell>
        <mxCell id="fvwBS4Mz04320T9NK9Mi-11" value="Price" style="ellipse;whiteSpace=wrap;html=1;" vertex="1" parent="1">
          <mxGeometry x="-800" y="260" width="120" height="80" as="geometry" />
        </mxCell>
        <mxCell id="fvwBS4Mz04320T9NK9Mi-12" value="Quantity" style="ellipse;whiteSpace=wrap;html=1;" vertex="1" parent="1">
          <mxGeometry x="-790" y="140" width="120" height="80" as="geometry" />
        </mxCell>
        <mxCell id="fvwBS4Mz04320T9NK9Mi-13" value="Cost" style="ellipse;whiteSpace=wrap;html=1;" vertex="1" parent="1">
          <mxGeometry x="-730" y="40" width="120" height="80" as="geometry" />
        </mxCell>
        <mxCell id="fvwBS4Mz04320T9NK9Mi-28" style="edgeStyle=none;rounded=0;orthogonalLoop=1;jettySize=auto;html=1;exitX=0.5;exitY=0;exitDx=0;exitDy=0;" edge="1" parent="1" source="fvwBS4Mz04320T9NK9Mi-6" target="fvwBS4Mz04320T9NK9Mi-6">
          <mxGeometry relative="1" as="geometry" />
        </mxCell>
        <mxCell id="fvwBS4Mz04320T9NK9Mi-29" value="Supplier List" style="rounded=0;whiteSpace=wrap;html=1;" vertex="1" parent="1">
          <mxGeometry x="-160" y="160" width="120" height="60" as="geometry" />
        </mxCell>
        <mxCell id="fvwBS4Mz04320T9NK9Mi-30" value="Contact" style="ellipse;whiteSpace=wrap;html=1;" vertex="1" parent="1">
          <mxGeometry x="-320" y="90" width="120" height="80" as="geometry" />
        </mxCell>
        <mxCell id="fvwBS4Mz04320T9NK9Mi-31" value="SupplierId(PK)" style="ellipse;whiteSpace=wrap;html=1;" vertex="1" parent="1">
          <mxGeometry x="-190" y="30" width="120" height="80" as="geometry" />
        </mxCell>
        <mxCell id="fvwBS4Mz04320T9NK9Mi-32" value="Date_created" style="ellipse;whiteSpace=wrap;html=1;" vertex="1" parent="1">
          <mxGeometry x="-50" y="80" width="120" height="80" as="geometry" />
        </mxCell>
        <mxCell id="fvwBS4Mz04320T9NK9Mi-33" value="Status" style="ellipse;whiteSpace=wrap;html=1;" vertex="1" parent="1">
          <mxGeometry x="-320" y="190" width="120" height="80" as="geometry" />
        </mxCell>
        <mxCell id="fvwBS4Mz04320T9NK9Mi-34" value="Actions(CRUD)" style="ellipse;whiteSpace=wrap;html=1;" vertex="1" parent="1">
          <mxGeometry x="-240" y="280" width="120" height="80" as="geometry" />
        </mxCell>
        <mxCell id="fvwBS4Mz04320T9NK9Mi-35" value="Name" style="ellipse;whiteSpace=wrap;html=1;" vertex="1" parent="1">
          <mxGeometry x="-30" y="190" width="120" height="80" as="geometry" />
        </mxCell>
        <mxCell id="fvwBS4Mz04320T9NK9Mi-36" value="Address" style="ellipse;whiteSpace=wrap;html=1;" vertex="1" parent="1">
          <mxGeometry x="-90" y="280" width="120" height="80" as="geometry" />
        </mxCell>
        <mxCell id="fvwBS4Mz04320T9NK9Mi-38" value="Warehouse" style="rounded=0;whiteSpace=wrap;html=1;" vertex="1" parent="1">
          <mxGeometry x="-600" y="550" width="120" height="60" as="geometry" />
        </mxCell>
        <mxCell id="fvwBS4Mz04320T9NK9Mi-39" value="WarehouseID(PK)" style="ellipse;whiteSpace=wrap;html=1;" vertex="1" parent="1">
          <mxGeometry x="-600" y="420" width="120" height="80" as="geometry" />
        </mxCell>
        <mxCell id="fvwBS4Mz04320T9NK9Mi-40" value="Name" style="ellipse;whiteSpace=wrap;html=1;" vertex="1" parent="1">
          <mxGeometry x="-460" y="480" width="120" height="80" as="geometry" />
        </mxCell>
        <mxCell id="fvwBS4Mz04320T9NK9Mi-41" value="Location" style="ellipse;whiteSpace=wrap;html=1;" vertex="1" parent="1">
          <mxGeometry x="-485" y="620" width="120" height="80" as="geometry" />
        </mxCell>
        <mxCell id="fvwBS4Mz04320T9NK9Mi-42" value="Manager" style="ellipse;whiteSpace=wrap;html=1;" vertex="1" parent="1">
          <mxGeometry x="-680" y="630" width="120" height="80" as="geometry" />
        </mxCell>
        <mxCell id="fvwBS4Mz04320T9NK9Mi-43" value="Capacity" style="ellipse;whiteSpace=wrap;html=1;" vertex="1" parent="1">
          <mxGeometry x="-730" y="490" width="120" height="80" as="geometry" />
        </mxCell>
        <mxCell id="fvwBS4Mz04320T9NK9Mi-44" value="Stock" style="rounded=0;whiteSpace=wrap;html=1;" vertex="1" parent="1">
          <mxGeometry x="-160" y="530" width="120" height="60" as="geometry" />
        </mxCell>
        <mxCell id="fvwBS4Mz04320T9NK9Mi-45" value="Product_ID" style="ellipse;whiteSpace=wrap;html=1;" vertex="1" parent="1">
          <mxGeometry x="-300" y="490" width="120" height="80" as="geometry" />
        </mxCell>
        <mxCell id="fvwBS4Mz04320T9NK9Mi-46" value="StockID(PK)" style="ellipse;whiteSpace=wrap;html=1;" vertex="1" parent="1">
          <mxGeometry x="-150" y="410" width="120" height="80" as="geometry" />
        </mxCell>
        <mxCell id="fvwBS4Mz04320T9NK9Mi-47" value="Last_updated" style="ellipse;whiteSpace=wrap;html=1;" vertex="1" parent="1">
          <mxGeometry x="-230" y="620" width="120" height="80" as="geometry" />
        </mxCell>
        <mxCell id="fvwBS4Mz04320T9NK9Mi-48" value="WarehouseID(PK)" style="ellipse;whiteSpace=wrap;html=1;" vertex="1" parent="1">
          <mxGeometry x="-10" y="470" width="120" height="80" as="geometry" />
        </mxCell>
        <mxCell id="fvwBS4Mz04320T9NK9Mi-49" value="Quantity" style="ellipse;whiteSpace=wrap;html=1;" vertex="1" parent="1">
          <mxGeometry x="-40" y="610" width="120" height="80" as="geometry" />
        </mxCell>
        <mxCell id="fvwBS4Mz04320T9NK9Mi-65" value="Product" style="rounded=0;whiteSpace=wrap;html=1;" vertex="1" parent="1">
          <mxGeometry x="-640" y="190" width="120" height="60" as="geometry" />
        </mxCell>
        <mxCell id="fvwBS4Mz04320T9NK9Mi-170" style="edgeStyle=none;rounded=0;orthogonalLoop=1;jettySize=auto;html=1;" edge="1" parent="1" source="fvwBS4Mz04320T9NK9Mi-66">
          <mxGeometry relative="1" as="geometry">
            <mxPoint x="-470" y="60" as="targetPoint" />
          </mxGeometry>
        </mxCell>
        <mxCell id="fvwBS4Mz04320T9NK9Mi-171" style="edgeStyle=none;rounded=0;orthogonalLoop=1;jettySize=auto;html=1;exitX=1;exitY=0;exitDx=0;exitDy=0;" edge="1" parent="1" source="fvwBS4Mz04320T9NK9Mi-66" target="fvwBS4Mz04320T9NK9Mi-89">
          <mxGeometry relative="1" as="geometry" />
        </mxCell>
        <mxCell id="fvwBS4Mz04320T9NK9Mi-175" style="edgeStyle=none;rounded=0;orthogonalLoop=1;jettySize=auto;html=1;" edge="1" parent="1" source="fvwBS4Mz04320T9NK9Mi-66" target="fvwBS4Mz04320T9NK9Mi-166">
          <mxGeometry relative="1" as="geometry" />
        </mxCell>
        <mxCell id="fvwBS4Mz04320T9NK9Mi-66" value="PID(PK)" style="ellipse;whiteSpace=wrap;html=1;" vertex="1" parent="1">
          <mxGeometry x="-590" y="30" width="120" height="70" as="geometry" />
        </mxCell>
        <mxCell id="fvwBS4Mz04320T9NK9Mi-67" value="Name" style="ellipse;whiteSpace=wrap;html=1;" vertex="1" parent="1">
          <mxGeometry x="-510" y="120" width="120" height="80" as="geometry" />
        </mxCell>
        <mxCell id="fvwBS4Mz04320T9NK9Mi-68" value="Description" style="ellipse;whiteSpace=wrap;html=1;" vertex="1" parent="1">
          <mxGeometry x="-470" y="240" width="120" height="80" as="geometry" />
        </mxCell>
        <mxCell id="fvwBS4Mz04320T9NK9Mi-69" value="Category" style="ellipse;whiteSpace=wrap;html=1;" vertex="1" parent="1">
          <mxGeometry x="-630" y="290" width="120" height="80" as="geometry" />
        </mxCell>
        <mxCell id="fvwBS4Mz04320T9NK9Mi-70" value="Price" style="ellipse;whiteSpace=wrap;html=1;" vertex="1" parent="1">
          <mxGeometry x="-800" y="260" width="120" height="80" as="geometry" />
        </mxCell>
        <mxCell id="fvwBS4Mz04320T9NK9Mi-71" value="Quantity" style="ellipse;whiteSpace=wrap;html=1;" vertex="1" parent="1">
          <mxGeometry x="-790" y="140" width="120" height="80" as="geometry" />
        </mxCell>
        <mxCell id="fvwBS4Mz04320T9NK9Mi-72" value="Cost" style="ellipse;whiteSpace=wrap;html=1;" vertex="1" parent="1">
          <mxGeometry x="-730" y="40" width="120" height="80" as="geometry" />
        </mxCell>
        <mxCell id="fvwBS4Mz04320T9NK9Mi-73" style="edgeStyle=none;rounded=0;orthogonalLoop=1;jettySize=auto;html=1;exitX=0.5;exitY=0;exitDx=0;exitDy=0;" edge="1" parent="1" source="fvwBS4Mz04320T9NK9Mi-65" target="fvwBS4Mz04320T9NK9Mi-65">
          <mxGeometry relative="1" as="geometry" />
        </mxCell>
        <mxCell id="fvwBS4Mz04320T9NK9Mi-74" value="Supplier List" style="rounded=0;whiteSpace=wrap;html=1;" vertex="1" parent="1">
          <mxGeometry x="-160" y="160" width="120" height="60" as="geometry" />
        </mxCell>
        <mxCell id="fvwBS4Mz04320T9NK9Mi-75" value="Contact" style="ellipse;whiteSpace=wrap;html=1;" vertex="1" parent="1">
          <mxGeometry x="-320" y="90" width="120" height="80" as="geometry" />
        </mxCell>
        <mxCell id="fvwBS4Mz04320T9NK9Mi-76" value="SupplierId(PK)" style="ellipse;whiteSpace=wrap;html=1;" vertex="1" parent="1">
          <mxGeometry x="-190" y="30" width="120" height="80" as="geometry" />
        </mxCell>
        <mxCell id="fvwBS4Mz04320T9NK9Mi-77" value="Date_created" style="ellipse;whiteSpace=wrap;html=1;" vertex="1" parent="1">
          <mxGeometry x="-50" y="80" width="120" height="80" as="geometry" />
        </mxCell>
        <mxCell id="fvwBS4Mz04320T9NK9Mi-78" value="Status" style="ellipse;whiteSpace=wrap;html=1;" vertex="1" parent="1">
          <mxGeometry x="-320" y="190" width="120" height="80" as="geometry" />
        </mxCell>
        <mxCell id="fvwBS4Mz04320T9NK9Mi-79" value="Actions(CRUD)" style="ellipse;whiteSpace=wrap;html=1;" vertex="1" parent="1">
          <mxGeometry x="-240" y="280" width="120" height="80" as="geometry" />
        </mxCell>
        <mxCell id="fvwBS4Mz04320T9NK9Mi-80" value="Name" style="ellipse;whiteSpace=wrap;html=1;" vertex="1" parent="1">
          <mxGeometry x="-30" y="190" width="120" height="80" as="geometry" />
        </mxCell>
        <mxCell id="fvwBS4Mz04320T9NK9Mi-81" value="Address" style="ellipse;whiteSpace=wrap;html=1;" vertex="1" parent="1">
          <mxGeometry x="-90" y="280" width="120" height="80" as="geometry" />
        </mxCell>
        <mxCell id="fvwBS4Mz04320T9NK9Mi-82" value="Warehouse" style="rounded=0;whiteSpace=wrap;html=1;" vertex="1" parent="1">
          <mxGeometry x="-600" y="550" width="120" height="60" as="geometry" />
        </mxCell>
        <mxCell id="fvwBS4Mz04320T9NK9Mi-172" style="edgeStyle=none;rounded=0;orthogonalLoop=1;jettySize=auto;html=1;exitX=1;exitY=0;exitDx=0;exitDy=0;" edge="1" parent="1" source="fvwBS4Mz04320T9NK9Mi-83" target="fvwBS4Mz04320T9NK9Mi-92">
          <mxGeometry relative="1" as="geometry" />
        </mxCell>
        <mxCell id="fvwBS4Mz04320T9NK9Mi-83" value="WarehouseID(PK)" style="ellipse;whiteSpace=wrap;html=1;" vertex="1" parent="1">
          <mxGeometry x="-600" y="420" width="120" height="80" as="geometry" />
        </mxCell>
        <mxCell id="fvwBS4Mz04320T9NK9Mi-84" value="Name" style="ellipse;whiteSpace=wrap;html=1;" vertex="1" parent="1">
          <mxGeometry x="-460" y="480" width="120" height="80" as="geometry" />
        </mxCell>
        <mxCell id="fvwBS4Mz04320T9NK9Mi-85" value="Location" style="ellipse;whiteSpace=wrap;html=1;" vertex="1" parent="1">
          <mxGeometry x="-485" y="620" width="120" height="80" as="geometry" />
        </mxCell>
        <mxCell id="fvwBS4Mz04320T9NK9Mi-86" value="Manager" style="ellipse;whiteSpace=wrap;html=1;" vertex="1" parent="1">
          <mxGeometry x="-680" y="630" width="120" height="80" as="geometry" />
        </mxCell>
        <mxCell id="fvwBS4Mz04320T9NK9Mi-87" value="Capacity" style="ellipse;whiteSpace=wrap;html=1;" vertex="1" parent="1">
          <mxGeometry x="-730" y="490" width="120" height="80" as="geometry" />
        </mxCell>
        <mxCell id="fvwBS4Mz04320T9NK9Mi-88" value="Stock" style="rounded=0;whiteSpace=wrap;html=1;" vertex="1" parent="1">
          <mxGeometry x="-160" y="530" width="120" height="60" as="geometry" />
        </mxCell>
        <mxCell id="fvwBS4Mz04320T9NK9Mi-89" value="Product_ID" style="ellipse;whiteSpace=wrap;html=1;" vertex="1" parent="1">
          <mxGeometry x="-300" y="490" width="120" height="80" as="geometry" />
        </mxCell>
        <mxCell id="fvwBS4Mz04320T9NK9Mi-90" value="StockID(PK)" style="ellipse;whiteSpace=wrap;html=1;" vertex="1" parent="1">
          <mxGeometry x="-150" y="410" width="120" height="80" as="geometry" />
        </mxCell>
        <mxCell id="fvwBS4Mz04320T9NK9Mi-91" value="Last_updated" style="ellipse;whiteSpace=wrap;html=1;" vertex="1" parent="1">
          <mxGeometry x="-230" y="620" width="120" height="80" as="geometry" />
        </mxCell>
        <mxCell id="fvwBS4Mz04320T9NK9Mi-92" value="WarehouseID(PK)" style="ellipse;whiteSpace=wrap;html=1;" vertex="1" parent="1">
          <mxGeometry x="-10" y="470" width="120" height="80" as="geometry" />
        </mxCell>
        <mxCell id="fvwBS4Mz04320T9NK9Mi-93" value="Quantity" style="ellipse;whiteSpace=wrap;html=1;" vertex="1" parent="1">
          <mxGeometry x="-40" y="610" width="120" height="80" as="geometry" />
        </mxCell>
        <mxCell id="fvwBS4Mz04320T9NK9Mi-94" value="User" style="rounded=1;whiteSpace=wrap;html=1;" vertex="1" parent="1">
          <mxGeometry x="320" y="510" width="120" height="60" as="geometry" />
        </mxCell>
        <mxCell id="fvwBS4Mz04320T9NK9Mi-137" value="UserID(PK)" style="ellipse;whiteSpace=wrap;html=1;" vertex="1" parent="1">
          <mxGeometry x="350" y="390" width="120" height="80" as="geometry" />
        </mxCell>
        <mxCell id="fvwBS4Mz04320T9NK9Mi-138" value="Password" style="ellipse;whiteSpace=wrap;html=1;" vertex="1" parent="1">
          <mxGeometry x="450" y="450" width="120" height="80" as="geometry" />
        </mxCell>
        <mxCell id="fvwBS4Mz04320T9NK9Mi-139" value="Username" style="ellipse;whiteSpace=wrap;html=1;" vertex="1" parent="1">
          <mxGeometry x="460" y="550" width="120" height="80" as="geometry" />
        </mxCell>
        <mxCell id="fvwBS4Mz04320T9NK9Mi-140" value="Email" style="ellipse;whiteSpace=wrap;html=1;" vertex="1" parent="1">
          <mxGeometry x="400" y="630" width="120" height="80" as="geometry" />
        </mxCell>
        <mxCell id="fvwBS4Mz04320T9NK9Mi-141" value="Contact_No" style="ellipse;whiteSpace=wrap;html=1;" vertex="1" parent="1">
          <mxGeometry x="270" y="640" width="120" height="80" as="geometry" />
        </mxCell>
        <mxCell id="fvwBS4Mz04320T9NK9Mi-142" value="Status" style="ellipse;whiteSpace=wrap;html=1;" vertex="1" parent="1">
          <mxGeometry x="220" y="400" width="120" height="80" as="geometry" />
        </mxCell>
        <mxCell id="fvwBS4Mz04320T9NK9Mi-143" value="Role" style="ellipse;whiteSpace=wrap;html=1;" vertex="1" parent="1">
          <mxGeometry x="180" y="580" width="120" height="80" as="geometry" />
        </mxCell>
        <mxCell id="fvwBS4Mz04320T9NK9Mi-144" value="Action" style="ellipse;whiteSpace=wrap;html=1;" vertex="1" parent="1">
          <mxGeometry x="170" y="490" width="120" height="80" as="geometry" />
        </mxCell>
        <mxCell id="fvwBS4Mz04320T9NK9Mi-146" value="Order" style="rounded=0;whiteSpace=wrap;html=1;" vertex="1" parent="1">
          <mxGeometry x="-580" y="850" width="120" height="60" as="geometry" />
        </mxCell>
        <mxCell id="fvwBS4Mz04320T9NK9Mi-176" style="edgeStyle=none;rounded=0;orthogonalLoop=1;jettySize=auto;html=1;exitX=0.5;exitY=0;exitDx=0;exitDy=0;" edge="1" parent="1" source="fvwBS4Mz04320T9NK9Mi-147" target="fvwBS4Mz04320T9NK9Mi-162">
          <mxGeometry relative="1" as="geometry" />
        </mxCell>
        <mxCell id="fvwBS4Mz04320T9NK9Mi-147" value="OrderID(PK)" style="ellipse;whiteSpace=wrap;html=1;" vertex="1" parent="1">
          <mxGeometry x="-580" y="750" width="120" height="80" as="geometry" />
        </mxCell>
        <mxCell id="fvwBS4Mz04320T9NK9Mi-148" value="OrderDate" style="ellipse;whiteSpace=wrap;html=1;" vertex="1" parent="1">
          <mxGeometry x="-450" y="790" width="120" height="80" as="geometry" />
        </mxCell>
        <mxCell id="fvwBS4Mz04320T9NK9Mi-174" style="edgeStyle=none;rounded=0;orthogonalLoop=1;jettySize=auto;html=1;exitX=1;exitY=0.5;exitDx=0;exitDy=0;entryX=0.5;entryY=1;entryDx=0;entryDy=0;" edge="1" parent="1" source="fvwBS4Mz04320T9NK9Mi-149" target="fvwBS4Mz04320T9NK9Mi-157">
          <mxGeometry relative="1" as="geometry" />
        </mxCell>
        <mxCell id="fvwBS4Mz04320T9NK9Mi-149" value="Quantity" style="ellipse;whiteSpace=wrap;html=1;" vertex="1" parent="1">
          <mxGeometry x="-620" y="940" width="120" height="80" as="geometry" />
        </mxCell>
        <mxCell id="fvwBS4Mz04320T9NK9Mi-150" value="Action" style="ellipse;whiteSpace=wrap;html=1;" vertex="1" parent="1">
          <mxGeometry x="-720" y="840" width="120" height="80" as="geometry" />
        </mxCell>
        <mxCell id="fvwBS4Mz04320T9NK9Mi-151" value="status" style="ellipse;whiteSpace=wrap;html=1;" vertex="1" parent="1">
          <mxGeometry x="-450" y="900" width="120" height="80" as="geometry" />
        </mxCell>
        <mxCell id="fvwBS4Mz04320T9NK9Mi-152" value="Return_Order" style="rounded=0;whiteSpace=wrap;html=1;" vertex="1" parent="1">
          <mxGeometry x="-190" y="830" width="120" height="60" as="geometry" />
        </mxCell>
        <mxCell id="fvwBS4Mz04320T9NK9Mi-153" value="Return_OrderID(ROID" style="ellipse;whiteSpace=wrap;html=1;" vertex="1" parent="1">
          <mxGeometry x="-190" y="720" width="120" height="80" as="geometry" />
        </mxCell>
        <mxCell id="fvwBS4Mz04320T9NK9Mi-154" value="OrderID(OID)" style="ellipse;whiteSpace=wrap;html=1;" vertex="1" parent="1">
          <mxGeometry x="-320" y="790" width="120" height="80" as="geometry" />
        </mxCell>
        <mxCell id="fvwBS4Mz04320T9NK9Mi-155" value="Cost" style="ellipse;whiteSpace=wrap;html=1;" vertex="1" parent="1">
          <mxGeometry x="-260" y="900" width="120" height="80" as="geometry" />
        </mxCell>
        <mxCell id="fvwBS4Mz04320T9NK9Mi-156" value="Status" style="ellipse;whiteSpace=wrap;html=1;" vertex="1" parent="1">
          <mxGeometry x="-50" y="770" width="120" height="80" as="geometry" />
        </mxCell>
        <mxCell id="fvwBS4Mz04320T9NK9Mi-157" value="Quantity" style="ellipse;whiteSpace=wrap;html=1;" vertex="1" parent="1">
          <mxGeometry x="-70" y="880" width="120" height="80" as="geometry" />
        </mxCell>
        <mxCell id="fvwBS4Mz04320T9NK9Mi-158" value="Payment" style="rounded=0;whiteSpace=wrap;html=1;" vertex="1" parent="1">
          <mxGeometry x="240" y="830" width="120" height="60" as="geometry" />
        </mxCell>
        <mxCell id="fvwBS4Mz04320T9NK9Mi-159" value="Pay_ID(PK)" style="ellipse;whiteSpace=wrap;html=1;" vertex="1" parent="1">
          <mxGeometry x="240" y="740" width="120" height="80" as="geometry" />
        </mxCell>
        <mxCell id="fvwBS4Mz04320T9NK9Mi-160" value="Status" style="ellipse;whiteSpace=wrap;html=1;" vertex="1" parent="1">
          <mxGeometry x="100" y="800" width="120" height="80" as="geometry" />
        </mxCell>
        <mxCell id="fvwBS4Mz04320T9NK9Mi-161" value="Amount" style="ellipse;whiteSpace=wrap;html=1;" vertex="1" parent="1">
          <mxGeometry x="150" y="910" width="120" height="80" as="geometry" />
        </mxCell>
        <mxCell id="fvwBS4Mz04320T9NK9Mi-162" value="OrderID" style="ellipse;whiteSpace=wrap;html=1;" vertex="1" parent="1">
          <mxGeometry x="390" y="820" width="120" height="80" as="geometry" />
        </mxCell>
        <mxCell id="fvwBS4Mz04320T9NK9Mi-163" value="PaymentDate" style="ellipse;whiteSpace=wrap;html=1;" vertex="1" parent="1">
          <mxGeometry x="305" y="920" width="120" height="80" as="geometry" />
        </mxCell>
        <mxCell id="fvwBS4Mz04320T9NK9Mi-164" value="SalesList" style="rounded=0;whiteSpace=wrap;html=1;" vertex="1" parent="1">
          <mxGeometry x="-485" y="1120" width="120" height="60" as="geometry" />
        </mxCell>
        <mxCell id="fvwBS4Mz04320T9NK9Mi-165" value="SalesID(PK)" style="ellipse;whiteSpace=wrap;html=1;" vertex="1" parent="1">
          <mxGeometry x="-490" y="1020" width="120" height="80" as="geometry" />
        </mxCell>
        <mxCell id="fvwBS4Mz04320T9NK9Mi-166" value="ProductID" style="ellipse;whiteSpace=wrap;html=1;" vertex="1" parent="1">
          <mxGeometry x="-350" y="1080" width="120" height="80" as="geometry" />
        </mxCell>
        <mxCell id="fvwBS4Mz04320T9NK9Mi-167" value="Cost" style="ellipse;whiteSpace=wrap;html=1;" vertex="1" parent="1">
          <mxGeometry x="-630" y="1090" width="120" height="80" as="geometry" />
        </mxCell>
        <mxCell id="fvwBS4Mz04320T9NK9Mi-168" value="Quantity" style="ellipse;whiteSpace=wrap;html=1;" vertex="1" parent="1">
          <mxGeometry x="-485" y="1210" width="120" height="80" as="geometry" />
        </mxCell>
        <mxCell id="fvwBS4Mz04320T9NK9Mi-173" style="edgeStyle=none;rounded=0;orthogonalLoop=1;jettySize=auto;html=1;exitX=1;exitY=0;exitDx=0;exitDy=0;entryX=0.308;entryY=0.013;entryDx=0;entryDy=0;entryPerimeter=0;" edge="1" parent="1" source="fvwBS4Mz04320T9NK9Mi-147" target="fvwBS4Mz04320T9NK9Mi-154">
          <mxGeometry relative="1" as="geometry" />
        </mxCell>
      </root>
    </mxGraphModel>
  </diagram>
</mxfile>
